<svg width="41" height="41" fill="none" xmlns="http://www.w3.org/2000/svg"><path fill-rule="evenodd" clip-rule="evenodd" d="M0 7.111v29.654h20.806v-2.902H2.972v-23.85H36.66v11.272h2.972V7.111H27.246V0H12.385v7.111H0Zm24.274 0h-8.917V2.903h8.917V7.11Z" fill="#6286CB"/><path d="M30.68 31.728v1.855h2.063v-1.855H30.68ZM26.551 31.728v1.855h2.064v-1.855h-2.064ZM34.808 31.728v1.855h2.064v-1.855h-2.064ZM30.68 35.437v1.854h2.063v-1.854H30.68ZM26.551 35.437v1.854h2.064v-1.854h-2.064ZM34.808 35.437v1.854h2.064v-1.854h-2.064Z" fill="#6286CB"/><path fill-rule="evenodd" clip-rule="evenodd" d="M22.423 23.847V41H41V23.847h-3.225v-1.39h-1.677v1.39h-8.773v-1.39h-1.677v1.39h-3.225Zm17.029 15.762H23.97v-9.967h15.48v9.967Z" fill="#6286CB"/></svg>