<svg width="41" height="41" viewBox="0 0 41 41" fill="none" xmlns="http://www.w3.org/2000/svg">
<path fill-rule="evenodd" clip-rule="evenodd" d="M0 7.11114V36.7651H20.8064V33.8626H2.97234V10.0136H36.6588V21.285H39.6312V7.11114H27.2464V0H12.3847V7.11114H0ZM24.2741 7.11114H15.3571V2.9025H24.2741V7.11114Z" fill="#6286CB"/>
<path d="M30.6794 31.7281V33.5825H32.7435V31.7281H30.6794Z" fill="#6286CB"/>
<path d="M26.5511 31.7281V33.5825H28.6153V31.7281H26.5511Z" fill="#6286CB"/>
<path d="M34.8076 31.7281V33.5825H36.8718V31.7281H34.8076Z" fill="#6286CB"/>
<path d="M30.6794 35.4369V37.2912H32.7435V35.4369H30.6794Z" fill="#6286CB"/>
<path d="M26.5511 35.4369V37.2912H28.6153V35.4369H26.5511Z" fill="#6286CB"/>
<path d="M34.8076 35.4369V37.2912H36.8718V35.4369H34.8076Z" fill="#6286CB"/>
<path fill-rule="evenodd" clip-rule="evenodd" d="M22.4229 23.847V41H41V23.847H37.7748V22.4562H36.0977V23.847H27.3252V22.4562H25.6481V23.847H22.4229ZM39.4519 39.6092H23.971V29.6419H39.4519V39.6092Z" fill="#6286CB"/>
</svg>
