<svg width="18" height="18" fill="none" xmlns="http://www.w3.org/2000/svg"><path d="m11.794 10.144-.825-.825c.325-.888.156-1.625-.506-2.213-.663-.587-1.382-.737-2.157-.45l-.825-.825c.213-.137.45-.237.713-.3.262-.062.531-.093.806-.093.887 0 1.64.309 2.26.928.618.618.928 1.372.928 2.259 0 .275-.035.547-.104.816a2.477 2.477 0 0 1-.29.703Zm2.418 2.418-.75-.75a8.79 8.79 0 0 0 1.604-1.509c.456-.556.79-1.116 1.003-1.678-.625-1.388-1.563-2.484-2.813-3.29a7.362 7.362 0 0 0-4.069-1.21c-.524 0-1.062.05-1.612.15-.55.1-.981.219-1.294.356L5.42 3.75c.437-.2.997-.375 1.678-.525A9.272 9.272 0 0 1 9.094 3c1.787 0 3.422.51 4.903 1.528 1.481 1.019 2.566 2.385 3.253 4.097a9.265 9.265 0 0 1-1.256 2.194 9.059 9.059 0 0 1-1.781 1.743ZM15.3 16.8l-3.15-3.094c-.438.175-.931.31-1.481.403A9.92 9.92 0 0 1 9 14.25c-1.825 0-3.481-.51-4.969-1.528C2.544 11.703 1.45 10.338.75 8.625c.25-.65.597-1.284 1.04-1.903.444-.619.985-1.21 1.623-1.772L1.05 2.587l.787-.806 14.194 14.194-.731.825ZM4.181 5.737c-.462.338-.91.782-1.34 1.332-.432.55-.741 1.068-.929 1.556a7.508 7.508 0 0 0 2.879 3.29c1.28.807 2.734 1.21 4.359 1.21.412 0 .819-.025 1.219-.075.4-.05.7-.125.9-.225l-1.2-1.2c-.138.063-.307.11-.507.14-.2.032-.387.047-.562.047a3.1 3.1 0 0 1-2.25-.918c-.625-.613-.938-1.369-.938-2.269 0-.188.016-.375.047-.563.032-.187.079-.356.141-.506L4.181 5.737Z" fill="#3B3B3B"/></svg>