<svg width="47" height="47" viewBox="0 0 43 43" fill="none" xmlns="http://www.w3.org/2000/svg"><g clip-path="url(#a)" fill="#3F60A0"><path d="M37.311 21.883c-17.451.658-17.984 1.191-18.641 18.651-.657-17.46-1.19-17.993-18.641-18.65 17.451-.658 17.984-1.19 18.64-18.65.658 17.46 1.191 17.992 18.642 18.65Zm10.412 14.728c-9.72.367-10.017.663-10.383 10.389-.366-9.726-.663-10.022-10.384-10.389 9.721-.366 10.018-.663 10.384-10.388.366 9.725.663 10.022 10.383 10.389ZM41.62 7.335c-6.864.259-7.073.468-7.332 7.335-.258-6.867-.468-7.076-7.331-7.335C33.82 7.077 34.03 6.867 34.288 0c.259 6.867.468 7.077 7.332 7.335Z"/></g><defs><clipPath id="a"><path fill="#fff" d="M0 0h47v47H0z"/></clipPath></defs></svg>