<svg width="41" height="41" fill="none" xmlns="http://www.w3.org/2000/svg"><path d="M2.953 34.454V10.188v24.266ZM0 37.407V7.235h12.305V0H27.07v7.235h12.305v14.422H36.423V10.188H2.953v24.266h17.72V37.407H0ZM15.258 7.235h8.86V2.953h-8.86v4.282ZM31.501 41c-2.593 0-4.824-.935-6.694-2.806-1.87-1.87-2.806-4.101-2.806-6.693 0-2.593.935-4.824 2.806-6.694C26.677 22.937 28.908 22 31.5 22c2.592 0 4.823.935 6.693 2.806C40.064 26.677 41 28.908 41 31.5c0 2.592-.935 4.823-2.806 6.693-1.87 1.87-4.101 2.806-6.693 2.806Zm3.642-4.528 1.329-1.33-4.135-3.74V25.3H30.27v6.694l4.873 4.479Z" fill="#EED476"/></svg>